<svg width="36" height="37" viewBox="0 0 36 37" fill="none" xmlns="http://www.w3.org/2000/svg">
<path d="M9.5 28.7V27C9.5 22.3056 13.3056 18.5 18 18.5C22.6944 18.5 26.5 22.3056 26.5 27V28.7" stroke="black" stroke-width="2" stroke-linecap="round"/>
<path d="M18 18.5C20.8167 18.5 23.1 16.2167 23.1 13.4C23.1 10.5833 20.8167 8.29999 18 8.29999C15.1833 8.29999 12.9 10.5833 12.9 13.4C12.9 16.2167 15.1833 18.5 18 18.5Z" stroke="black" stroke-width="2" stroke-linecap="round" stroke-linejoin="round"/>
<path d="M18 35.5C27.3888 35.5 35 27.8888 35 18.5C35 9.11116 27.3888 1.5 18 1.5C8.61116 1.5 1 9.11116 1 18.5C1 27.8888 8.61116 35.5 18 35.5Z" stroke="black" stroke-width="2"/>
</svg>
