<svg width="36" height="37" viewBox="0 0 36 37" fill="none" xmlns="http://www.w3.org/2000/svg">
<path d="M23.0371 18.5H24.4222C25.0482 18.5 25.5556 19.0074 25.5556 19.6333V26.8111C25.5556 27.4371 25.0482 27.9444 24.4222 27.9444H11.5778C10.9519 27.9444 10.4445 27.4371 10.4445 26.8111V19.6333C10.4445 19.0074 10.9519 18.5 11.5778 18.5H12.963M23.0371 18.5V13.7778C23.0371 12.2037 22.0296 9.05556 18 9.05556C13.9704 9.05556 12.963 12.2037 12.963 13.7778V18.5M23.0371 18.5H12.963" stroke="black" stroke-width="2" stroke-linecap="round" stroke-linejoin="round"/>
<path d="M1 31.7222V5.27778C1 3.19137 2.69137 1.5 4.77778 1.5H31.2222C33.3087 1.5 35 3.19137 35 5.27778V31.7222C35 33.8087 33.3087 35.5 31.2222 35.5H4.77778C2.69137 35.5 1 33.8087 1 31.7222Z" stroke="black" stroke-width="2"/>
</svg>
