<svg width="42" height="36" viewBox="0 0 42 36" fill="none" xmlns="http://www.w3.org/2000/svg">
<g clip-path="url(#clip0_2154_316)">
<path d="M34.1724 7.19852C36.2934 11.1105 35.8122 15.7155 33.4637 19.458C31.5369 22.5285 28.6617 25.068 26.2922 27.879C25.2089 29.166 24.1152 30.504 23.3714 31.9695C23.1247 32.457 22.9112 32.9565 22.7012 33.4575C22.4894 33.957 22.3092 34.467 22.1062 34.9695C21.9154 35.4405 21.6932 35.9955 21.0089 36H20.9967C20.1812 35.9985 19.9834 35.205 19.7804 34.6695C19.2834 33.3585 18.7637 32.1 17.9972 30.882C17.1047 29.466 15.9934 28.1565 14.8647 26.8755L34.1724 7.19852ZM14.9539 11.5575L8.02566 18.618C9.29266 20.928 11.2124 22.9125 13.0499 24.888C13.4822 25.353 13.9144 25.821 14.3397 26.292L23.0617 17.4045L23.0109 17.4195C19.9642 18.321 16.5517 16.983 15.3249 14.439C15.1571 14.0937 15.0344 13.7335 14.9592 13.365C14.8489 12.7095 14.8244 12.2235 14.9522 11.568L14.9539 11.5575ZM9.61116 4.72352L9.60591 4.72952C6.19866 8.42852 5.61416 13.5495 7.65116 17.8845L16.0249 9.35102L15.9234 9.27602L9.61116 4.72352ZM25.6569 0.654024L18.9404 7.49852C18.9559 7.49287 18.9716 7.48786 18.9877 7.48352C21.7877 6.65702 24.9429 7.70852 26.3727 9.92252C26.6807 10.401 26.9379 10.947 27.0324 11.49C27.1514 12.159 27.1812 12.6495 27.0534 13.32L27.0482 13.344L33.7612 6.50252C32.0069 3.76 29.123 1.67638 25.6727 0.658524L25.6569 0.654024ZM16.5657 8.80202L24.7837 0.427524L24.7014 0.409524C23.4854 0.135543 22.233 -0.00210526 20.9757 2.43358e-05C18.9397 0.0163695 16.9297 0.393381 15.0719 1.10738C13.214 1.82138 11.5485 2.85694 10.1799 4.14902L10.1519 4.17602L16.5657 8.80202Z" fill="#002C55"/>
</g>
<defs>
<clipPath id="clip0_2154_316">
<rect width="42" height="36" fill="white"/>
</clipPath>
</defs>
</svg>
